<svg id="Capa_1" data-name="Capa 1" xmlns="http://www.w3.org/2000/svg" viewBox="0 0 40.62 30.29"><defs><style>.cls-1{fill:#8d8d8d;}</style></defs><path class="cls-1" d="M17.5,14.19A4.69,4.69,0,0,0,19,13.1a4.3,4.3,0,0,0,.9-2.84A4.91,4.91,0,0,0,19,7.31c-1-1.34-2.69-2-5.07-2.06H4.48v19.3H13.3a14.06,14.06,0,0,0,2.76-.26,5.49,5.49,0,0,0,2.21-1,5.28,5.28,0,0,0,1.38-1.52,5.5,5.5,0,0,0,.88-3.08,5,5,0,0,0-.77-2.82A4.36,4.36,0,0,0,17.5,14.19ZM8.38,8.6h4.26A7.75,7.75,0,0,1,15,8.9,1.75,1.75,0,0,1,16,10.69a1.8,1.8,0,0,1-.79,1.69,4,4,0,0,1-2.07.48H8.38Zm6.73,12.26a4.61,4.61,0,0,1-2,.34H8.38V16.05H13.2a5.06,5.06,0,0,1,2,.33,2.06,2.06,0,0,1,1.24,2.07A2.42,2.42,0,0,1,15.11,20.86Z"/><rect class="cls-1" x="24.71" y="6.15" width="8.38" height="2.4"/><path class="cls-1" d="M36,15.63a6.92,6.92,0,0,0-1.15-3,5.91,5.91,0,0,0-2.5-2.11A8.25,8.25,0,0,0,29,9.9a7,7,0,0,0-5.17,2,7.67,7.67,0,0,0-2,5.69q0,4,2.21,5.71A8,8,0,0,0,29.09,25,7.11,7.11,0,0,0,34.53,23a4.69,4.69,0,0,0,1.4-2.58H32.07a3.13,3.13,0,0,1-.78,1,3.27,3.27,0,0,1-2.1.65,3.83,3.83,0,0,1-2.08-.54,3.39,3.39,0,0,1-1.52-3H36.13A17.87,17.87,0,0,0,36,15.63ZM25.69,16a3.85,3.85,0,0,1,1-2.21A3,3,0,0,1,29,13a3.39,3.39,0,0,1,2.25.76,3.13,3.13,0,0,1,1,2.26Z"/></svg>