<svg id="Capa_1" data-name="Capa 1" xmlns="http://www.w3.org/2000/svg" viewBox="0 0 24.63 24.35"><defs><style>.cls-1{fill:#8d8d8d;}</style></defs><path class="cls-1" d="M16.47,22.81l.06,0c11.63-4.62,8.41-22-4.2-22a11.42,11.42,0,1,0,4.14,22.06Zm-10.54-3c.81-1.36,3.44-5.21,7.92-6.53a24.32,24.32,0,0,1,1.66,8.33,9.92,9.92,0,0,1-9.58-1.8Zm11,1.21A25.28,25.28,0,0,0,15.28,13a12.86,12.86,0,0,1,6.88.94A10,10,0,0,1,16.91,21.05Zm5.4-8.6a13.9,13.9,0,0,0-7.58-.8,22.86,22.86,0,0,0-1.07-2.16,19.13,19.13,0,0,0,6.23-3.84A9.91,9.91,0,0,1,22.31,12.45ZM18.87,4.63a18.12,18.12,0,0,1-6,3.59A26.39,26.39,0,0,0,8.54,2.93,9.91,9.91,0,0,1,18.87,4.63Zm-11.7-1a25.24,25.24,0,0,1,4.33,5.1,31.2,31.2,0,0,1-9,1.41A10.07,10.07,0,0,1,7.17,3.62ZM2.36,11.56A32.51,32.51,0,0,0,12.27,10c.36.63.7,1.31,1,2a16.66,16.66,0,0,0-8.41,6.82,9.87,9.87,0,0,1-2.53-7.27Z"/></svg>