<svg id="Capa_1" data-name="Capa 1" xmlns="http://www.w3.org/2000/svg" viewBox="0 0 26.08 24.23"><defs><style>.cls-1{fill:#8d8d8d;}</style></defs><path class="cls-1" d="M24.19,7.42a8.27,8.27,0,0,0-.53-2.72,5.7,5.7,0,0,0-3.27-3.28A8.09,8.09,0,0,0,17.67.9C16.47.84,16.09.83,13,.83S9.62.84,8.42.89a8.56,8.56,0,0,0-2.72.52,5.59,5.59,0,0,0-2,1.3,5.52,5.52,0,0,0-1.29,2A8.32,8.32,0,0,0,1.9,7.41c0,1.2-.07,1.58-.07,4.63s0,3.42.07,4.62a8.17,8.17,0,0,0,.52,2.71A5.76,5.76,0,0,0,5.7,22.65a8,8,0,0,0,2.72.52c1.19.06,1.58.07,4.62.07s3.42,0,4.62-.07a8,8,0,0,0,2.72-.52,5.76,5.76,0,0,0,3.28-3.28,8.49,8.49,0,0,0,.52-2.71c.05-1.2.06-1.58.06-4.62S24.24,8.61,24.19,7.42Zm-2,9.15a6,6,0,0,1-.39,2.08,3.72,3.72,0,0,1-2.13,2.13,6.32,6.32,0,0,1-2.08.38c-1.18.05-1.53.07-4.52.07s-3.35,0-4.53-.07a6.32,6.32,0,0,1-2.08-.38,3.48,3.48,0,0,1-1.29-.84,3.45,3.45,0,0,1-.83-1.29,6,6,0,0,1-.39-2.08c-.05-1.18-.06-1.53-.06-4.52s0-3.35.06-4.53a5.94,5.94,0,0,1,.39-2.08,3.36,3.36,0,0,1,.84-1.29,3.37,3.37,0,0,1,1.28-.83,6,6,0,0,1,2.08-.39c1.19-.05,1.54-.07,4.53-.07s3.35,0,4.53.07a6,6,0,0,1,2.08.39A3.41,3.41,0,0,1,21,4.15a3.45,3.45,0,0,1,.83,1.29,6,6,0,0,1,.39,2.08c0,1.18.06,1.53.06,4.53S22.22,15.39,22.17,16.57Z"/><path class="cls-1" d="M13,6.28A5.76,5.76,0,1,0,18.8,12,5.75,5.75,0,0,0,13,6.28Zm0,9.49A3.74,3.74,0,1,1,16.78,12,3.73,3.73,0,0,1,13,15.77Z"/><path class="cls-1" d="M20.37,6.05A1.35,1.35,0,1,1,19,4.71,1.35,1.35,0,0,1,20.37,6.05Z"/></svg>