<?xml version="1.0" encoding="utf-8"?>
<!-- Generator: Adobe Illustrator 25.1.0, SVG Export Plug-In . SVG Version: 6.00 Build 0)  -->
<svg version="1.1" id="Capa_1" xmlns="http://www.w3.org/2000/svg" xmlns:xlink="http://www.w3.org/1999/xlink" x="0px" y="0px"
	 viewBox="0 0 26.1 24.2" style="enable-background:new 0 0 26.1 24.2;" xml:space="preserve">
<style type="text/css">
	.st0{fill:#8D8D8D;}
</style>
<path class="st0" d="M20.4,6c0,0.7-0.6,1.4-1.3,1.4c-0.7,0-1.4-0.6-1.4-1.3c0-0.7,0.6-1.3,1.3-1.4C19.7,4.7,20.4,5.3,20.4,6
	C20.4,6,20.4,6,20.4,6z"/>
<path class="st0" d="M22.1,0.9c-3.5-0.1-5.9,1.9-7.2,6.1c0.6-0.3,1.3-0.4,1.9-0.4c1.3,0,1.9,0.7,1.7,2.2c-0.1,0.9-0.6,2.2-1.7,3.9
	c-1.1,1.7-1.9,2.6-2.4,2.6c-1.6,0-2.6-7.8-2.9-9.9C11,2.4,9.8,1.1,7.8,1.3C6,1.4,2.8,4.7,0.3,6.9l1.2,1.6c1.1-0.8,1.8-1.2,2-1.2
	c2,0,3,6.8,4.5,11.8c1,2.8,2.3,4.2,3.8,4.2c2.4,0,5.3-2.3,8.8-6.8c3.4-4.4,5.1-7.8,5.2-10.3l0,0C26,2.7,24.7,1,22.1,0.9L22.1,0.9z"
	/>
</svg>
